<mxfile host="Electron" agent="Mozilla/5.0 (Macintosh; Intel Mac OS X 10_15_7) AppleWebKit/537.36 (KHTML, like Gecko) draw.io/24.7.17 Chrome/128.0.6613.36 Electron/32.0.1 Safari/537.36" version="24.7.17">
  <diagram id="kgpKYQtTHZ0yAKxKKP6v" name="Page-1">
    <mxGraphModel dx="2034" dy="702" grid="1" gridSize="10" guides="1" tooltips="1" connect="1" arrows="1" fold="1" page="1" pageScale="1" pageWidth="1100" pageHeight="850" math="0" shadow="0">
      <root>
        <mxCell id="0" />
        <mxCell id="1" parent="0" />
        <mxCell id="soAuHpVcPObN9e2wOpiU-68" style="edgeStyle=orthogonalEdgeStyle;rounded=0;orthogonalLoop=1;jettySize=auto;html=1;exitX=1;exitY=0.5;exitDx=0;exitDy=0;entryX=0;entryY=0.5;entryDx=0;entryDy=0;fillColor=#1ba1e2;strokeColor=#006EAF;" edge="1" parent="1" source="3nuBFxr9cyL0pnOWT2aG-6" target="soAuHpVcPObN9e2wOpiU-8">
          <mxGeometry relative="1" as="geometry" />
        </mxCell>
        <mxCell id="3nuBFxr9cyL0pnOWT2aG-6" value="Start" style="rounded=1;whiteSpace=wrap;html=1;arcSize=50;fillColor=#cdeb8b;strokeColor=#36393d;" parent="1" vertex="1">
          <mxGeometry x="-1034" y="150" width="90" height="40" as="geometry" />
        </mxCell>
        <mxCell id="3nuBFxr9cyL0pnOWT2aG-7" value="serve up documents" style="rounded=0;whiteSpace=wrap;html=1;fillColor=#fa6800;fontColor=#000000;strokeColor=#C73500;" parent="1" vertex="1">
          <mxGeometry x="-436" y="730" width="90" height="40" as="geometry" />
        </mxCell>
        <mxCell id="3nuBFxr9cyL0pnOWT2aG-17" value="postman login" style="rounded=0;whiteSpace=wrap;html=1;fillColor=#1ba1e2;fontColor=#ffffff;strokeColor=#006EAF;" parent="1" vertex="1">
          <mxGeometry x="-534" y="150" width="90" height="40" as="geometry" />
        </mxCell>
        <mxCell id="3nuBFxr9cyL0pnOWT2aG-10" value="define postman api" style="rounded=0;whiteSpace=wrap;html=1;fillColor=#1ba1e2;fontColor=#ffffff;strokeColor=#006EAF;" parent="1" vertex="1">
          <mxGeometry x="-406" y="150" width="90" height="40" as="geometry" />
        </mxCell>
        <mxCell id="3nuBFxr9cyL0pnOWT2aG-21" value="document" style="shape=document;whiteSpace=wrap;html=1;boundedLbl=1;" parent="1" vertex="1">
          <mxGeometry x="-1044" y="755" width="90" height="60" as="geometry" />
        </mxCell>
        <mxCell id="3nuBFxr9cyL0pnOWT2aG-20" value="build documents" style="rounded=0;whiteSpace=wrap;html=1;fillColor=#fa6800;fontColor=#000000;strokeColor=#C73500;" parent="1" vertex="1">
          <mxGeometry x="-614" y="730" width="90" height="40" as="geometry" />
        </mxCell>
        <mxCell id="3nuBFxr9cyL0pnOWT2aG-14" value="End" style="rounded=1;whiteSpace=wrap;html=1;arcSize=50;fillColor=#e51400;fontColor=#ffffff;strokeColor=#B20000;" parent="1" vertex="1">
          <mxGeometry x="-284" y="730" width="90" height="40" as="geometry" />
        </mxCell>
        <mxCell id="soAuHpVcPObN9e2wOpiU-4" value="postman collection upload" style="rounded=0;whiteSpace=wrap;html=1;fillColor=#1ba1e2;fontColor=#ffffff;strokeColor=#006EAF;" vertex="1" parent="1">
          <mxGeometry x="-804" y="400.0000000000001" width="90" height="40" as="geometry" />
        </mxCell>
        <mxCell id="soAuHpVcPObN9e2wOpiU-5" value="postman collection generate" style="rounded=0;whiteSpace=wrap;html=1;fillColor=#fa6800;fontColor=#000000;strokeColor=#C73500;" vertex="1" parent="1">
          <mxGeometry x="-936" y="400.0000000000001" width="90" height="40" as="geometry" />
        </mxCell>
        <mxCell id="soAuHpVcPObN9e2wOpiU-6" value="lint" style="rounded=0;whiteSpace=wrap;html=1;fillColor=#fa6800;fontColor=#000000;strokeColor=#C73500;" vertex="1" parent="1">
          <mxGeometry x="-666" y="150" width="86" height="40" as="geometry" />
        </mxCell>
        <mxCell id="soAuHpVcPObN9e2wOpiU-8" value="Install&amp;nbsp;&lt;div&gt;Packages&lt;/div&gt;" style="rounded=0;whiteSpace=wrap;html=1;fillColor=#fa6800;fontColor=#000000;strokeColor=#C73500;" vertex="1" parent="1">
          <mxGeometry x="-904" y="150" width="90" height="40" as="geometry" />
        </mxCell>
        <mxCell id="soAuHpVcPObN9e2wOpiU-10" value="upload env" style="rounded=0;whiteSpace=wrap;html=1;fillColor=#1ba1e2;fontColor=#ffffff;strokeColor=#006EAF;" vertex="1" parent="1">
          <mxGeometry x="-674" y="640" width="90" height="40" as="geometry" />
        </mxCell>
        <mxCell id="soAuHpVcPObN9e2wOpiU-11" value="postman create env" style="rounded=0;whiteSpace=wrap;html=1;fillColor=#f0a30a;fontColor=#000000;strokeColor=#BD7000;" vertex="1" parent="1">
          <mxGeometry x="-804" y="640" width="90" height="40" as="geometry" />
        </mxCell>
        <mxCell id="soAuHpVcPObN9e2wOpiU-12" value="postman mock create" style="rounded=0;whiteSpace=wrap;html=1;fillColor=#1ba1e2;fontColor=#ffffff;strokeColor=#006EAF;" vertex="1" parent="1">
          <mxGeometry x="-936" y="640" width="90" height="40" as="geometry" />
        </mxCell>
        <mxCell id="soAuHpVcPObN9e2wOpiU-13" value="postman collection upload test" style="rounded=0;whiteSpace=wrap;html=1;fillColor=#ffff88;strokeColor=#36393d;" vertex="1" parent="1">
          <mxGeometry x="-374" y="520.0000000000001" width="90" height="40" as="geometry" />
        </mxCell>
        <mxCell id="soAuHpVcPObN9e2wOpiU-14" value="postman collection add tests" style="rounded=0;whiteSpace=wrap;html=1;fillColor=#ffff88;strokeColor=#36393d;" vertex="1" parent="1">
          <mxGeometry x="-664" y="520.0000000000001" width="90" height="40" as="geometry" />
        </mxCell>
        <mxCell id="soAuHpVcPObN9e2wOpiU-15" value="postman collection auto fix" style="rounded=0;whiteSpace=wrap;html=1;fillColor=#ffff88;strokeColor=#36393d;" vertex="1" parent="1">
          <mxGeometry x="-526" y="520.0000000000001" width="90" height="40" as="geometry" />
        </mxCell>
        <mxCell id="soAuHpVcPObN9e2wOpiU-16" value="generate openapi" style="rounded=0;whiteSpace=wrap;html=1;fillColor=#fa6800;fontColor=#000000;strokeColor=#C73500;" vertex="1" parent="1">
          <mxGeometry x="-784" y="150" width="90" height="40" as="geometry" />
        </mxCell>
        <mxCell id="soAuHpVcPObN9e2wOpiU-17" value="import openapi spec" style="rounded=0;whiteSpace=wrap;html=1;fillColor=#1ba1e2;fontColor=#ffffff;strokeColor=#006EAF;" vertex="1" parent="1">
          <mxGeometry x="-284" y="150" width="90" height="40" as="geometry" />
        </mxCell>
        <mxCell id="soAuHpVcPObN9e2wOpiU-18" value="api set version" style="rounded=0;whiteSpace=wrap;html=1;fillColor=#1ba1e2;fontColor=#ffffff;strokeColor=#006EAF;" vertex="1" parent="1">
          <mxGeometry x="-156" y="150" width="90" height="40" as="geometry" />
        </mxCell>
        <mxCell id="soAuHpVcPObN9e2wOpiU-19" value="postman collection add examples" style="rounded=0;whiteSpace=wrap;html=1;fillColor=#ffff88;strokeColor=#36393d;" vertex="1" parent="1">
          <mxGeometry x="-790" y="520.0000000000001" width="90" height="40" as="geometry" />
        </mxCell>
        <mxCell id="soAuHpVcPObN9e2wOpiU-23" value="test against mock server" style="rounded=0;whiteSpace=wrap;html=1;fillColor=#1ba1e2;fontColor=#ffffff;strokeColor=#006EAF;" vertex="1" parent="1">
          <mxGeometry x="-794" y="730" width="90" height="40" as="geometry" />
        </mxCell>
        <mxCell id="soAuHpVcPObN9e2wOpiU-24" value="start postman mock server" style="rounded=0;whiteSpace=wrap;html=1;" vertex="1" parent="1">
          <mxGeometry x="-1026" y="850" width="90" height="40" as="geometry" />
        </mxCell>
        <mxCell id="soAuHpVcPObN9e2wOpiU-26" value="update mock workspace" style="rounded=0;whiteSpace=wrap;html=1;fillColor=#1ba1e2;fontColor=#ffffff;strokeColor=#006EAF;" vertex="1" parent="1">
          <mxGeometry x="-374" y="640" width="90" height="40" as="geometry" />
        </mxCell>
        <mxCell id="soAuHpVcPObN9e2wOpiU-33" value="link collection to api" style="rounded=0;whiteSpace=wrap;html=1;fillColor=#1ba1e2;fontColor=#ffffff;strokeColor=#006EAF;" vertex="1" parent="1">
          <mxGeometry x="-674" y="400" width="90" height="40" as="geometry" />
        </mxCell>
        <mxCell id="soAuHpVcPObN9e2wOpiU-36" value="start pris&lt;span style=&quot;color: rgba(0, 0, 0, 0); font-family: monospace; font-size: 0px; text-align: start; text-wrap: nowrap;&quot;&gt;%3CmxGraphModel%3E%3Croot%3E%3CmxCell%20id%3D%220%22%2F%3E%3CmxCell%20id%3D%221%22%20parent%3D%220%22%2F%3E%3CmxCell%20id%3D%222%22%20value%3D%22build%20documents%22%20style%3D%22rounded%3D0%3BwhiteSpace%3Dwrap%3Bhtml%3D1%3B%22%20vertex%3D%221%22%20parent%3D%221%22%3E%3CmxGeometry%20x%3D%22-1078%22%20y%3D%22520%22%20width%3D%2290%22%20height%3D%2240%22%20as%3D%22geometry%22%2F%3E%3C%2FmxCell%3E%3C%2Froot%3E%3C%2FmxGraphModel%3E&lt;/span&gt;&lt;span style=&quot;color: rgba(0, 0, 0, 0); font-family: monospace; font-size: 0px; text-align: start; text-wrap: nowrap;&quot;&gt;%3CmxGraphModel%3E%3Croot%3E%3CmxCell%20id%3D%220%22%2F%3E%3CmxCell%20id%3D%221%22%20parent%3D%220%22%2F%3E%3CmxCell%20id%3D%222%22%20value%3D%22build%20documents%22%20style%3D%22rounded%3D0%3BwhiteSpace%3Dwrap%3Bhtml%3D1%3B%22%20vertex%3D%221%22%20parent%3D%221%22%3E%3CmxGeometry%20x%3D%22-1078%22%20y%3D%22520%22%20width%3D%2290%22%20height%3D%2240%22%20as%3D%22geometry%22%2F%3E%3C%2FmxCell%3E%3C%2Froot%3E%3C%2FmxGraphModel%3E&lt;/span&gt;m mock server" style="rounded=0;whiteSpace=wrap;html=1;" vertex="1" parent="1">
          <mxGeometry x="-980" y="845" width="90" height="40" as="geometry" />
        </mxCell>
        <mxCell id="soAuHpVcPObN9e2wOpiU-37" value="update mock server env" style="rounded=0;whiteSpace=wrap;html=1;fillColor=#1ba1e2;fontColor=#ffffff;strokeColor=#006EAF;" vertex="1" parent="1">
          <mxGeometry x="-534" y="640" width="90" height="40" as="geometry" />
        </mxCell>
        <mxCell id="soAuHpVcPObN9e2wOpiU-45" value="document" style="shape=document;whiteSpace=wrap;html=1;boundedLbl=1;" vertex="1" parent="1">
          <mxGeometry x="-1034" y="765" width="90" height="60" as="geometry" />
        </mxCell>
        <mxCell id="soAuHpVcPObN9e2wOpiU-46" value="document" style="shape=document;whiteSpace=wrap;html=1;boundedLbl=1;" vertex="1" parent="1">
          <mxGeometry x="-1024" y="775" width="90" height="60" as="geometry" />
        </mxCell>
        <mxCell id="soAuHpVcPObN9e2wOpiU-47" value="document" style="shape=document;whiteSpace=wrap;html=1;boundedLbl=1;" vertex="1" parent="1">
          <mxGeometry x="-1024" y="885" width="90" height="60" as="geometry" />
        </mxCell>
        <mxCell id="soAuHpVcPObN9e2wOpiU-48" value="data dictionary" style="shape=document;whiteSpace=wrap;html=1;boundedLbl=1;fillColor=#6a00ff;fontColor=#ffffff;strokeColor=#3700CC;" vertex="1" parent="1">
          <mxGeometry x="-790" y="40" width="90" height="60" as="geometry" />
        </mxCell>
        <mxCell id="soAuHpVcPObN9e2wOpiU-49" value="document" style="shape=document;whiteSpace=wrap;html=1;boundedLbl=1;" vertex="1" parent="1">
          <mxGeometry x="-1059" y="1040" width="90" height="60" as="geometry" />
        </mxCell>
        <mxCell id="soAuHpVcPObN9e2wOpiU-50" value="document" style="shape=document;whiteSpace=wrap;html=1;boundedLbl=1;" vertex="1" parent="1">
          <mxGeometry x="-1010" y="960" width="90" height="60" as="geometry" />
        </mxCell>
        <mxCell id="soAuHpVcPObN9e2wOpiU-51" value="document" style="shape=document;whiteSpace=wrap;html=1;boundedLbl=1;" vertex="1" parent="1">
          <mxGeometry x="-1024" y="1110" width="90" height="60" as="geometry" />
        </mxCell>
        <mxCell id="soAuHpVcPObN9e2wOpiU-52" value="document" style="shape=document;whiteSpace=wrap;html=1;boundedLbl=1;" vertex="1" parent="1">
          <mxGeometry x="-954" y="1040" width="90" height="60" as="geometry" />
        </mxCell>
        <mxCell id="soAuHpVcPObN9e2wOpiU-53" value="openapi spec" style="shape=document;whiteSpace=wrap;html=1;boundedLbl=1;fillColor=#6a00ff;fontColor=#ffffff;strokeColor=#3700CC;" vertex="1" parent="1">
          <mxGeometry x="-668" y="240" width="90" height="60" as="geometry" />
        </mxCell>
        <mxCell id="soAuHpVcPObN9e2wOpiU-56" value="" style="endArrow=classic;html=1;rounded=0;exitX=0.5;exitY=1;exitDx=0;exitDy=0;fillColor=#d80073;strokeColor=#A50040;" edge="1" parent="1" source="soAuHpVcPObN9e2wOpiU-16">
          <mxGeometry width="50" height="50" relative="1" as="geometry">
            <mxPoint x="-900" y="320" as="sourcePoint" />
            <mxPoint x="-670" y="260" as="targetPoint" />
          </mxGeometry>
        </mxCell>
        <mxCell id="soAuHpVcPObN9e2wOpiU-57" value="" style="endArrow=classic;html=1;rounded=0;entryX=0.5;entryY=1;entryDx=0;entryDy=0;fillColor=#d80073;strokeColor=#A50040;" edge="1" parent="1" target="soAuHpVcPObN9e2wOpiU-6">
          <mxGeometry width="50" height="50" relative="1" as="geometry">
            <mxPoint x="-630" y="240" as="sourcePoint" />
            <mxPoint x="-640" y="180" as="targetPoint" />
          </mxGeometry>
        </mxCell>
        <mxCell id="soAuHpVcPObN9e2wOpiU-60" value="" style="endArrow=classic;html=1;rounded=0;entryX=0.25;entryY=1;entryDx=0;entryDy=0;fillColor=#d80073;strokeColor=#A50040;" edge="1" parent="1" target="soAuHpVcPObN9e2wOpiU-17">
          <mxGeometry relative="1" as="geometry">
            <mxPoint x="-580" y="260" as="sourcePoint" />
            <mxPoint x="-480" y="260" as="targetPoint" />
          </mxGeometry>
        </mxCell>
        <mxCell id="soAuHpVcPObN9e2wOpiU-66" value="" style="endArrow=classic;html=1;rounded=0;entryX=0.5;entryY=0;entryDx=0;entryDy=0;fillColor=#d80073;strokeColor=#A50040;" edge="1" parent="1" target="soAuHpVcPObN9e2wOpiU-16">
          <mxGeometry width="50" height="50" relative="1" as="geometry">
            <mxPoint x="-760" y="100" as="sourcePoint" />
            <mxPoint x="-710" y="50" as="targetPoint" />
          </mxGeometry>
        </mxCell>
        <mxCell id="soAuHpVcPObN9e2wOpiU-69" value="" style="endArrow=classic;html=1;rounded=0;entryX=0;entryY=0.5;entryDx=0;entryDy=0;" edge="1" parent="1" target="soAuHpVcPObN9e2wOpiU-16">
          <mxGeometry width="50" height="50" relative="1" as="geometry">
            <mxPoint x="-810" y="170" as="sourcePoint" />
            <mxPoint x="-760" y="130" as="targetPoint" />
          </mxGeometry>
        </mxCell>
        <mxCell id="soAuHpVcPObN9e2wOpiU-71" value="" style="endArrow=classic;html=1;rounded=0;entryX=0;entryY=0.5;entryDx=0;entryDy=0;" edge="1" parent="1" target="soAuHpVcPObN9e2wOpiU-6">
          <mxGeometry width="50" height="50" relative="1" as="geometry">
            <mxPoint x="-690" y="170" as="sourcePoint" />
            <mxPoint x="-650" y="130" as="targetPoint" />
            <Array as="points">
              <mxPoint x="-690" y="170" />
            </Array>
          </mxGeometry>
        </mxCell>
        <mxCell id="soAuHpVcPObN9e2wOpiU-73" value="" style="endArrow=classic;html=1;rounded=0;entryX=0;entryY=0.5;entryDx=0;entryDy=0;" edge="1" parent="1" target="3nuBFxr9cyL0pnOWT2aG-17">
          <mxGeometry width="50" height="50" relative="1" as="geometry">
            <mxPoint x="-580" y="170" as="sourcePoint" />
            <mxPoint x="-530" y="130" as="targetPoint" />
          </mxGeometry>
        </mxCell>
        <mxCell id="soAuHpVcPObN9e2wOpiU-74" value="" style="endArrow=classic;html=1;rounded=0;entryX=0;entryY=0.5;entryDx=0;entryDy=0;" edge="1" parent="1" target="3nuBFxr9cyL0pnOWT2aG-10">
          <mxGeometry width="50" height="50" relative="1" as="geometry">
            <mxPoint x="-440" y="170" as="sourcePoint" />
            <mxPoint x="-390" y="130" as="targetPoint" />
          </mxGeometry>
        </mxCell>
        <mxCell id="soAuHpVcPObN9e2wOpiU-75" value="" style="endArrow=classic;html=1;rounded=0;entryX=0;entryY=0.5;entryDx=0;entryDy=0;" edge="1" parent="1" source="3nuBFxr9cyL0pnOWT2aG-10" target="soAuHpVcPObN9e2wOpiU-17">
          <mxGeometry width="50" height="50" relative="1" as="geometry">
            <mxPoint x="-310" y="170" as="sourcePoint" />
            <mxPoint x="-270" y="130" as="targetPoint" />
          </mxGeometry>
        </mxCell>
        <mxCell id="soAuHpVcPObN9e2wOpiU-77" value="" style="endArrow=classic;html=1;rounded=0;entryX=0;entryY=0.5;entryDx=0;entryDy=0;" edge="1" parent="1" target="soAuHpVcPObN9e2wOpiU-18">
          <mxGeometry width="50" height="50" relative="1" as="geometry">
            <mxPoint x="-190" y="170" as="sourcePoint" />
            <mxPoint x="-150" y="120" as="targetPoint" />
          </mxGeometry>
        </mxCell>
        <mxCell id="soAuHpVcPObN9e2wOpiU-78" value="A" style="ellipse;whiteSpace=wrap;html=1;aspect=fixed;fillColor=#60a917;fontColor=#ffffff;strokeColor=#2D7600;" vertex="1" parent="1">
          <mxGeometry x="-140" y="230" width="40" height="40" as="geometry" />
        </mxCell>
        <mxCell id="soAuHpVcPObN9e2wOpiU-79" value="A" style="ellipse;whiteSpace=wrap;html=1;aspect=fixed;fillColor=#60a917;fontColor=#ffffff;strokeColor=#2D7600;" vertex="1" parent="1">
          <mxGeometry x="-1034" y="400" width="40" height="40" as="geometry" />
        </mxCell>
        <mxCell id="soAuHpVcPObN9e2wOpiU-81" value="" style="endArrow=classic;html=1;rounded=0;entryX=0.5;entryY=0;entryDx=0;entryDy=0;" edge="1" parent="1" target="soAuHpVcPObN9e2wOpiU-78">
          <mxGeometry width="50" height="50" relative="1" as="geometry">
            <mxPoint x="-120" y="190" as="sourcePoint" />
            <mxPoint x="-70" y="140" as="targetPoint" />
          </mxGeometry>
        </mxCell>
        <mxCell id="soAuHpVcPObN9e2wOpiU-84" value="" style="endArrow=classic;html=1;rounded=0;" edge="1" parent="1">
          <mxGeometry width="50" height="50" relative="1" as="geometry">
            <mxPoint x="-990" y="420" as="sourcePoint" />
            <mxPoint x="-940" y="420" as="targetPoint" />
          </mxGeometry>
        </mxCell>
        <mxCell id="soAuHpVcPObN9e2wOpiU-90" value="lint results" style="shape=document;whiteSpace=wrap;html=1;boundedLbl=1;fillColor=#6a00ff;fontColor=#ffffff;strokeColor=#3700CC;" vertex="1" parent="1">
          <mxGeometry x="-666" y="40" width="90" height="60" as="geometry" />
        </mxCell>
        <mxCell id="soAuHpVcPObN9e2wOpiU-91" value="" style="endArrow=classic;html=1;rounded=0;entryX=0.576;entryY=0.811;entryDx=0;entryDy=0;entryPerimeter=0;fillColor=#d80073;strokeColor=#A50040;" edge="1" parent="1" target="soAuHpVcPObN9e2wOpiU-90">
          <mxGeometry width="50" height="50" relative="1" as="geometry">
            <mxPoint x="-620" y="150" as="sourcePoint" />
            <mxPoint x="-570" y="100" as="targetPoint" />
          </mxGeometry>
        </mxCell>
        <mxCell id="soAuHpVcPObN9e2wOpiU-93" value="postman collection generate" style="rounded=0;whiteSpace=wrap;html=1;fillColor=#ffff88;strokeColor=#36393d;" vertex="1" parent="1">
          <mxGeometry x="-936" y="520.0000000000001" width="90" height="40" as="geometry" />
        </mxCell>
      </root>
    </mxGraphModel>
  </diagram>
</mxfile>
